# xmcd
#
# Track frame offsets:
#	150
#	18983
#	37270
#	57628
#	73356
#	88288
#	104195
#	117438
#	135650
#	157229
#	174507
#
# Disc length: 2560 seconds
#
# Revision: 1
# Processed by: cddbd v1.5.1PL0 Copyright (c) Steve Scherf et al.
# Submitted via: audiograbber 1.83.01
#
DISCID=b109fe0b
DTITLE=Angel Forrest - Here for you
DYEAR=2005
DGENRE=Québécois
TTITLE0=Here for you
TTITLE1=Simple life
TTITLE2=Ernest and Virginia
TTITLE3=Mother nature
TTITLE4=Strung out
TTITLE5=Come to me
TTITLE6=Free
TTITLE7=Wish you were here
TTITLE8=Your tale
TTITLE9=Living easy
TTITLE10=A new day
EXTD=
EXTT0=
EXTT1=
EXTT2=
EXTT3=
EXTT4=
EXTT5=
EXTT6=
EXTT7=
EXTT8=
EXTT9=
EXTT10=
PLAYORDER=
